# File created by Blade
# Date/Time:  Tue Apr 07 20:45:22 2015
# Frame Rate: 120.000 fps
#------------------------------------------------------
:FULLY-SPECIFIED
:DEGREES
736
root 3.019662 34.058701 -5.597460 15.372221 -18.890986 -45.180986
Spine 7.364745 22.517540 32.512575
Head 7.993025 -0.885607 14.079009
LeftShoulder -21.457698 25.042702 34.210727
LeftArm 68.756781 -74.022233 -49.936857
LeftForeArm 18.404698 -0.000000 17.824640
LeftHand 9.293390 -0.000000 13.720548
LeftHandThumb1 -26.253704 0.000000 33.147579
RightShoulder -10.320644 32.290003 -34.867674
RightArm 70.279595 78.399812 107.949542
RightForeArm 48.025679 -0.000000 56.699110
RightHand 1.589855 -0.000000 29.403723
RightHandThumb1 -24.326973 -0.000000 -32.862282
LeftUpLeg -7.323379 -6.157616 40.691658
LeftLeg 24.008498 -0.000000 -0.000000
LeftFoot -21.275989 0.873327 -30.918746
LeftToeBase -8.334502 -0.000000 0.000000
RightUpLeg -135.637602 -54.214738 21.012663
RightLeg -10.785956 -0.000000 0.000000
RightFoot 39.255757 -25.415748 14.934326
RightToeBase 17.680858 -0.000000 -0.000000
737
root 3.073886 34.063279 -5.652652 15.627798 -18.954843 -45.354605
Spine 7.484056 23.020050 32.950045
Head 7.543334 -1.001630 13.750964
LeftShoulder -21.703319 26.190481 33.444238
LeftArm 69.875883 -74.708399 -50.993247
LeftForeArm 17.927152 -0.000000 17.624577
LeftHand 9.488209 -0.000000 14.005357
LeftHandThumb1 -26.253704 0.000000 33.147579
RightShoulder -10.095321 32.086327 -34.626850
RightArm 70.678685 78.468892 108.119424
RightForeArm 47.656448 -0.000000 56.294083
RightHand 1.641571 0.000000 29.460976
RightHandThumb1 -24.326973 -0.000000 -32.862282
LeftUpLeg -7.927642 -5.833945 40.866952
LeftLeg 24.673455 -0.000000 -0.000000
LeftFoot -21.285702 1.142866 -31.536128
LeftToeBase -9.542868 -0.000000 0.000000
RightUpLeg -134.620993 -54.176257 20.286444
RightLeg -10.574032 -0.000000 0.000000
RightFoot 39.346804 -25.513699 15.117419
RightToeBase 17.750384 -0.000000 -0.000000
738
root 3.127258 34.069751 -5.710234 15.997965 -19.045182 -45.457693
Spine 7.489150 23.648201 33.237252
Head 7.093831 -1.258721 13.423261
LeftShoulder -21.787473 26.673205 33.086819
LeftArm 69.186917 -74.976754 -50.503709
LeftForeArm 17.636067 -0.000000 17.555867
LeftHand 9.626326 -0.000000 14.220634
LeftHandThumb1 -26.253704 0.000000 33.147579
RightShoulder -9.991440 31.647839 -34.421095
RightArm 71.538650 78.427428 108.826038
RightForeArm 47.333937 -0.000000 55.993812
RightHand 1.761343 0.000000 29.379640
RightHandThumb1 -24.326973 -0.000000 -32.862282
LeftUpLeg -8.546654 -5.361881 40.950088
LeftLeg 25.193051 -0.000000 -0.000000
LeftFoot -21.133291 1.308950 -32.618929
LeftToeBase -11.838930 -0.000000 0.000000
RightUpLeg -133.780330 -54.096230 19.537682
RightLeg -10.305937 -0.000000 0.000000
RightFoot 39.486146 -25.505421 15.111923
RightToeBase 17.987517 -0.000000 -0.000000
739
root 3.179075 34.079091 -5.762591 16.410912 -19.122825 -45.528268
Spine 7.414153 24.256766 33.453768
Head 6.581593 -1.488024 13.094625
LeftShoulder -21.900126 26.943597 32.804263
LeftArm 68.116499 -75.076181 -49.631684
LeftForeArm 17.500502 -0.000000 17.471648
LeftHand 9.701286 -0.000000 14.483765
LeftHandThumb1 -26.253704 0.000000 33.147579
RightShoulder -9.860802 31.006137 -34.203327
RightArm 72.767402 78.316695 109.957481
RightForeArm 47.102441 -0.000000 55.821830
RightHand 1.848676 -0.000000 29.320648
RightHandThumb1 -24.326973 -0.000000 -32.862282
LeftUpLeg -9.070421 -4.818927 40.918693
LeftLeg 25.497786 -0.000000 -0.000000
LeftFoot -21.583826 3.035497 -31.414373
LeftToeBase -11.724173 -0.000000 0.000000
RightUpLeg -133.073940 -54.060714 18.835418
RightLeg -10.033597 -0.000000 0.000000
RightFoot 39.570100 -25.475139 15.383218
RightToeBase 18.210608 -0.000000 -0.000000
740
root 3.229527 34.089770 -5.815192 16.861493 -19.178203 -45.548264
Spine 7.270124 24.866147 33.601978
Head 6.122013 -1.747076 12.696149
LeftShoulder -21.977879 27.090422 32.500182
LeftArm 66.940940 -75.193523 -48.599271
LeftForeArm 17.440296 -0.000000 17.351582
LeftHand 9.755308 -0.000000 14.591506
LeftHandThumb1 -26.253704 0.000000 33.147579
RightShoulder -9.865734 30.762608 -34.141661
RightArm 72.501112 78.288537 109.714975
RightForeArm 46.762459 -0.000000 55.784042
RightHand 1.755579 -0.000000 29.262144
RightHandThumb1 -24.326973 -0.000000 -32.862282
LeftUpLeg -9.498705 -4.350344 40.813100
LeftLeg 25.518291 -0.000000 -0.000000
LeftFoot -21.993415 4.769339 -30.580423
LeftToeBase -12.155826 -0.000000 0.000000
RightUpLeg -132.590222 -53.995042 18.265141
RightLeg -9.781897 -0.000000 0.000000
RightFoot 39.668265 -25.442837 15.567631
RightToeBase 18.402624 -0.000000 -0.000000
741
root 3.278659 34.101521 -5.863778 17.342714 -19.213964 -45.525904
Spine 7.053567 25.430491 33.685584
Head 5.701309 -1.899759 12.227168
LeftShoulder -22.061570 27.240995 32.155073
LeftArm 66.100606 -75.380305 -47.925770
LeftForeArm 17.418895 -0.000000 17.274930
LeftHand 9.738762 0.000000 14.785645
LeftHandThumb1 -26.253704 0.000000 33.147579
RightShoulder -9.959862 30.653480 -34.218775
RightArm 71.121101 78.227868 108.491895
RightForeArm 46.416691 -0.000000 55.808354
RightHand 1.799609 -0.000000 29.255652
RightHandThumb1 -24.326973 -0.000000 -32.862282
LeftUpLeg -9.860355 -3.899258 40.636239
LeftLeg 25.374228 -0.000000 -0.000000
LeftFoot -22.656565 7.164912 -29.162808
LeftToeBase -11.697642 -0.000000 0.000000
RightUpLeg -132.437153 -53.842418 17.942014
RightLeg -9.479420 -0.000000 0.000000
RightFoot 39.667518 -25.406402 15.745106
RightToeBase 18.489254 -0.000000 -0.000000
742
root 3.322694 34.115196 -5.908701 17.823577 -19.233849 -45.546022
Spine 6.850277 25.928321 33.836180
Head 5.322486 -1.998295 11.590642
LeftShoulder -22.070884 27.259520 31.870794
LeftArm 65.040568 -75.565148 -47.172321
LeftForeArm 17.379868 0.000000 17.275295
LeftHand 9.731467 0.000000 14.996314
LeftHandThumb1 -26.253704 0.000000 33.147579
RightShoulder -10.002515 30.567132 -34.338489
RightArm 69.890352 78.163165 107.436097
RightForeArm 46.212459 0.000000 55.965642
RightHand 1.798981 -0.000000 29.185011
RightHandThumb1 -24.326973 -0.000000 -32.862282
LeftUpLeg -10.115281 -3.556780 40.503135
LeftLeg 25.098048 -0.000000 -0.000000
LeftFoot -23.557605 9.937926 -27.879595
LeftToeBase -10.409878 -0.000000 0.000000
RightUpLeg -132.413565 -53.640593 17.801517
RightLeg -9.242257 -0.000000 0.000000
RightFoot 39.707419 -25.321855 15.733743
RightToeBase 18.464997 -0.000000 -0.000000
743
root 3.358700 34.131126 -5.945586 18.252115 -19.224140 -45.579819
Spine 6.669908 26.282172 34.008013
Head 4.969291 -2.095234 10.896709
LeftShoulder -22.246809 28.350586 30.998563
LeftArm 66.947370 -76.704832 -49.239531
LeftForeArm 17.148077 -0.000000 17.315594
LeftHand 9.629068 -0.000000 15.175555
LeftHandThumb1 -26.253704 0.000000 33.147579
RightShoulder -10.006252 30.581839 -34.468790
RightArm 69.004621 78.084707 106.730257
RightForeArm 45.840561 -0.000000 56.144097
RightHand 1.869496 0.000000 29.010820
RightHandThumb1 -24.326973 -0.000000 -32.862282
LeftUpLeg -10.281965 -3.265147 40.422576
LeftLeg 24.737589 -0.000000 -0.000000
LeftFoot -24.118147 12.434029 -26.887786
LeftToeBase -10.208796 -0.000000 0.000000
RightUpLeg -132.457848 -53.446636 17.750935
RightLeg -9.013728 -0.000000 0.000000
RightFoot 39.702002 -25.101827 15.545981
RightToeBase 18.366492 -0.000000 -0.000000
